HIERARCHY
ROOT Hips
{
  OFFSET 208.558 93.8803 -228.541
  CHANNELS 6 Xposition Yposition Zposition Zrotation Xrotation Yrotation
  JOINT RightUpLeg
  {
    OFFSET -8.9458 -8.66707 0.101652
    CHANNELS 3 Zrotation Xrotation Yrotation
    JOINT RightLeg
    {
      OFFSET 0 -44.4227 1.3727
      CHANNELS 3 Zrotation Xrotation Yrotation
      JOINT RightFoot
      {
        OFFSET 0.253549 -42.0924 -1.46059
        CHANNELS 3 Zrotation Xrotation Yrotation
        JOINT RightToes
        {
          OFFSET 0.04 -4.41509 8.4991
          CHANNELS 3 Zrotation Xrotation Yrotation
          End Site
          {
            OFFSET -0.08 -0.137448 9.77979
          }
        }
      }
    }
  }
  JOINT Spine
  {
    OFFSET 0 11.8905 0
    CHANNELS 3 Zrotation Xrotation Yrotation
    JOINT Spine1
    {
      OFFSET 0 25.6574 0.127663
      CHANNELS 3 Zrotation Xrotation Yrotation
      JOINT HEad
      {
        OFFSET 0 8.73416 0.011341
        CHANNELS 3 Zrotation Xrotation Yrotation
        End Site
        {
          OFFSET -0.29 12.7742 2.51395
        }
      }
      JOINT LeftShoulder1
      {
        OFFSET 8.99 -0.362252 -0.22
        CHANNELS 3 Zrotation Xrotation Yrotation
        JOINT LeftArm
        {
          OFFSET 10.2827 -0.00338 0.322123
          CHANNELS 3 Zrotation Xrotation Yrotation
          JOINT LeftForeArm
          {
            OFFSET 32.7669 0.099144 -1.42434
            CHANNELS 3 Zrotation Xrotation Yrotation
            JOINT LeftHand
            {
              OFFSET 27.5643 0.085362 1.02216
              CHANNELS 3 Zrotation Xrotation Yrotation
              End Site
              {
                OFFSET 16.7443 -0.6 1.50291
              }
            }
          }
        }
      }
      JOINT RightShoulder
      {
        OFFSET -8.99 -0.362252 -0.22
        CHANNELS 3 Zrotation Xrotation Yrotation
        JOINT RightArm
        {
          OFFSET -10.2827 -0.00338 0.322123
          CHANNELS 3 Zrotation Xrotation Yrotation
          JOINT RightForeArm
          {
            OFFSET -32.8971 0.099144 -1.42434
            CHANNELS 3 Zrotation Xrotation Yrotation
            JOINT RightHand
            {
              OFFSET -27.4921 0.085362 1.02216
              CHANNELS 3 Zrotation Xrotation Yrotation
              End Site
              {
                OFFSET -16.6312 -0.6 1.50291
              }
            }
          }
        }
      }
    }
  }
  JOINT LeftUpLeg
  {
    OFFSET 8.9458 -8.66707 0.101652
    CHANNELS 3 Zrotation Xrotation Yrotation
    JOINT LeftLeg
    {
      OFFSET 0 -44.4227 1.3727
      CHANNELS 3 Zrotation Xrotation Yrotation
      JOINT LeftFoot
      {
        OFFSET -0.253549 -42.0924 -1.46059
        CHANNELS 3 Zrotation Xrotation Yrotation
        JOINT LeftToes
        {
          OFFSET -0.04 -4.41509 8.4991
          CHANNELS 3 Zrotation Xrotation Yrotation
          End Site
          {
            OFFSET 0.08 -0.047448 9.77979
          }
        }
      }
    }
  }
}
MOTION
Frames:	12
Frame Time:	0.0166667
211.087 96.2403 -222.01 -3.35704 8.51118 -136.747 -11.2216 -8.08139 12.6842 35.4937 15.1925 -34.1521 -30.8839 -1.63667 -1.67419 0.0462048 0.000533403 0.662642 1.54336 19.6543 -4.46508 -0.0215114 0.013259 -0.0174108 -10.4737 7.26059 19.184 5.29669e-031 -3.18055e-015 9.54166e-015 170.901 -55.7744 -150.831 -104.215 65.0683 -15.6882 19.7767 16.0791 -11.9495 14.2577 13.0773 1.57063 102.503 -5.06307 76.1408 35.2569 55.4267 80.5891 18.6994 18.982 2.77681 31.3264 -8.31983 -8.11394 -29.6835 9.69976 73.9453 -29.7212 -0.726703 -0.851826 -2.0265e-009 1.5602e-007 -4.87131e-009 
210.76 96.1852 -221.818 -4.59306 8.57218 -135.481 -11.9781 -6.85961 10.4485 34.7346 16.1158 -32.8972 -30.6755 -1.57174 -1.67213 0.0462048 0.000533403 0.662642 2.57154 19.2536 -3.24769 -0.0200003 0.013259 -0.0174108 -10.7847 10.2531 15.1511 7.95139e-016 0 -9.54166e-015 176.136 -57.5644 -144.012 -100.796 65.6249 -17.5512 20.2519 17.0354 -12.0894 13.1974 13.2462 -1.01124 102.805 -4.60796 75.6987 34.3306 54.5334 81.8513 18.6818 19.1528 2.44553 30.4662 -7.19659 -13.4408 -30.3266 5.94748 76.2135 -29.2093 -0.734693 -0.888666 -2.0265e-009 1.5602e-007 -4.87131e-009 
210.425 96.1332 -221.68 -5.70048 8.62582 -134.208 -12.7642 -5.81373 8.34816 34.1768 17.23 -31.8953 -30.4786 -1.47309 -1.66761 0.0462048 0.000533403 0.662642 3.33848 19.0358 -2.25356 -0.0185003 0.013259 -0.0174108 -10.5339 12.6406 11.465 -7.95139e-016 -7.95139e-016 6.36111e-015 -177.813 -58.645 -136.85 -96.9104 66.0233 -19.829 20.2698 15.7889 -12.7502 12.4493 13.3428 -3.21989 103.194 -4.3327 75.2507 33.833 53.7855 82.9034 18.4897 19.3204 2.33316 29.7393 -6.23052 -18.2015 -30.6756 2.70408 78.0272 -28.8422 -0.770683 -0.928962 -2.0265e-009 1.5602e-007 -4.87131e-009 
210.085 96.0847 -221.583 -6.68702 8.66882 -132.948 -13.5623 -4.93775 6.40894 33.8462 18.4499 -31.1519 -30.3681 -1.34854 -1.66531 0.0462048 0.000533403 0.662642 3.85629 18.9673 -1.46018 -0.0165126 0.013259 -0.0174108 -9.85534 14.4388 8.12431 7.95139e-016 1.59028e-015 -0 -171.271 -59.0335 -129.624 -92.4927 66.257 -22.6159 20.5881 16.3072 -12.956 11.9968 13.3461 -5.06477 103.481 -4.53666 75.0726 33.2768 54.0113 83.4017 18.5095 19.3836 2.10039 29.1221 -5.41951 -22.3847 -30.8107 -0.0167606 79.4457 -28.6076 -0.828744 -0.965178 -2.0265e-009 1.5602e-007 -4.87131e-009 
209.748 96.0247 -221.515 -7.56461 8.70203 -131.712 -14.3623 -4.23532 4.64598 33.7645 19.7385 -30.6876 -30.3852 -1.21227 -1.66508 0.0462048 0.000533403 0.662642 4.14034 19.013 -0.837886 -0.0143129 0.013259 -0.0174108 -8.86168 15.7005 5.12732 -7.95139e-016 -3.18055e-015 3.18055e-015 -156.546 -58.1246 -116.084 -77.6489 65.5875 -33.9895 20.6289 15.6184 -13.4065 11.8112 13.2555 -6.56519 103.733 -4.92566 74.9051 32.9707 54.2693 83.829 18.429 19.4405 2.01723 28.5379 -4.82512 -24.9251 -30.8295 -1.54024 79.6533 -28.5442 -0.918985 -1.01603 -2.0265e-009 1.5602e-007 -4.87131e-009 
209.418 95.9429 -221.466 -8.34655 8.72436 -130.51 -15.1501 -3.70173 3.0717 33.916 21.0647 -30.5071 -30.541 -1.06593 -1.66888 0.0462048 0.000533403 0.662642 4.21291 19.1541 -0.36817 -0.0120284 0.013259 -0.0174108 -7.65749 16.4767 2.48449 0 7.95139e-016 -0 -146.404 -56.3885 -106.765 -67.6229 64.3671 -41.7904 20.8177 15.962 -13.5243 11.8609 13.0731 -7.74734 103.926 -5.48087 74.7509 32.8628 54.5288 84.2056 18.4716 19.5327 1.83908 27.8759 -4.6196 -25.9374 -30.8455 -1.56494 78.9449 -28.8293 -1.03901 -1.15512 -2.02649e-009 1.5602e-007 -4.87131e-009 
209.105 95.8336 -221.432 -9.04314 8.73217 -129.348 -15.9151 -3.32884 1.69349 34.2764 22.4008 -30.6087 -30.8309 -0.911988 -1.67553 0.0462048 0.000533403 0.662642 4.09957 19.372 -0.0352523 -0.00978628 0.013259 -0.0174108 -6.33535 16.8227 0.207663 -7.95139e-016 0 3.18055e-015 -139.358 -54.4858 -100.39 -60.705 63.049 -47.1981 20.76 15.6143 -13.7158 12.1019 12.812 -8.63731 104.058 -6.17241 74.6065 32.896 54.7755 84.5593 18.4384 19.6139 1.75864 27.4328 -4.17141 -25.7246 -30.9053 -1.63066 77.0515 -28.7019 -1.1632 -1.12229 -2.0265e-009 1.5602e-007 -4.87131e-009 
208.814 95.6967 -221.412 -9.66146 8.71938 -128.233 -16.6479 -3.10497 0.513568 34.8139 23.7189 -30.9838 -31.2402 -0.754075 -1.68401 0.0462048 0.000533403 0.662642 3.8237 19.6482 0.176416 -0.00978628 0.013259 -0.0174108 -4.97183 16.7961 -1.69585 -7.95139e-016 -1.59028e-015 -9.54166e-015 -134.303 -52.6302 -95.9575 -55.7062 61.7819 -51.0726 20.7443 15.851 -13.7399 12.485 12.4933 -9.25937 104.15 -6.96192 74.4659 33.0163 55.0097 84.9107 18.4705 19.6914 1.61843 26.9845 -3.94925 -24.2911 -30.9977 -0.753965 74.4135 -28.6935 -1.28555 -1.10557 -2.0265e-009 1.5602e-007 -4.87131e-009 
208.551 95.5466 -221.409 -10.2049 8.68186 -127.169 -17.4007 -3.02094 -0.458961 35.4666 25.0621 -31.6225 -31.0122 -0.643341 -1.67004 0.0462048 0.000533403 0.662642 3.40919 19.9661 0.282745 -0.00978628 0.013259 -0.0174108 -3.62663 16.4544 -3.22701 1.59028e-015 1.59028e-015 1.90833e-014 -130.544 -50.8853 -92.8289 -51.912 60.5993 -53.9577 20.584 15.6916 -13.8253 12.9618 12.1392 -9.64073 104.224 -7.80383 74.3241 33.1819 55.2304 85.2717 18.462 19.7356 1.52845 26.4704 -4.04622 -21.7211 -31.0187 1.22059 71.2049 -28.913 -1.39422 -1.1426 -2.0265e-009 1.5602e-007 -4.87131e-009 
208.316 95.3866 -221.427 -10.6773 8.61808 -126.163 -18.0906 -3.04225 -1.23666 36.2265 26.3109 -32.4845 -30.8779 -0.523877 -1.65866 0.0462048 0.000533403 0.662642 2.87804 20.3137 0.302105 -0.00978628 0.013259 -0.0174108 -2.34298 15.8534 -4.3966 1.59028e-015 0 -9.54166e-015 -127.659 -49.2742 -90.6043 -48.9135 59.5058 -56.1802 20.4596 15.878 -13.8203 13.4964 11.7669 -9.81417 104.288 -8.64698 74.1747 33.3532 55.4303 85.6515 18.5154 19.7667 1.3888 25.9902 -4.20462 -19.2513 -30.9277 3.21775 68.2955 -29.1772 -1.49062 -1.18013 -2.02651e-009 1.5602e-007 -4.87131e-009 
208.106 95.2236 -221.47 -11.0833 8.52941 -125.221 -18.7129 -3.14447 -1.8247 37.0461 27.451 -33.5303 -30.8003 -0.399654 -1.64835 0.0462048 0.000533403 0.662642 2.2518 20.6819 0.253145 -0.00978628 0.013259 -0.0174108 -1.14893 15.0471 -5.22518 7.95139e-016 0 -9.54166e-015 -125.389 -47.8162 -89.0315 -46.4861 58.5075 -57.9377 20.2782 15.8501 -13.8551 14.07 11.3853 -9.81755 104.329 -9.44127 74.0104 33.4902 55.5945 86.0647 18.5718 19.7856 1.26332 25.5462 -4.42418 -16.8975 -30.74 5.19363 65.6824 -29.4654 -1.57483 -1.21803 -2.02651e-009 1.5602e-007 -4.87131e-009 
207.919 95.0624 -221.539 -11.4283 8.41952 -124.35 -19.2618 -3.30485 -2.22964 37.8844 28.4711 -34.7146 -30.7513 -0.274748 -1.63799 0.0462048 0.000533403 0.662642 1.55215 21.0627 0.153366 -0.00978628 0.013259 -0.0174108 -0.0601401 14.0866 -5.74116 -2.20695e-032 3.97569e-016 3.18055e-015 -123.582 -46.5317 -87.9462 -44.5108 57.6188 -59.3407 20.1471 16.0241 -13.8345 14.6741 10.999 -9.68624 104.326 -10.1477 73.827 33.5578 55.7119 86.5207 18.6782 19.8083 1.09238 25.1408 -4.69958 -14.6771 -30.4743 7.11501 63.3582 -29.7652 -1.64665 -1.25584 -2.02651e-009 1.5602e-007 -4.87131e-009 
